# xmcd
#
# Track frame offsets: 
#        150
#        22470
#        37744
#        49995
#        61586
#        71745
#        93610
#
# Disc length: 1417 seconds
#
# Revision: 0
# Processed by: cddbd v1.5.2PL0 Copyright (c) Steve Scherf et al.
# Submitted via: ExactAudioCopy v0.95a5
#
DISCID=5e058707
DTITLE=Stingu z Giena - Live in Studio 2009
DYEAR=2009
DGENRE=Blues
TTITLE0=Jednego serca
TTITLE1=Dziwny jest ten swiat
TTITLE2=Living Loving
TTITLE3=Fortunate son
TTITLE4=Trevelling Band
TTITLE5=Rumble On 
TTITLE6=R'n Roll
EXTD=
EXTT0=
EXTT1=
EXTT2=
EXTT3=
EXTT4=
EXTT5=
EXTT6=
PLAYORDER=
